<?xml version="1.0" encoding="UTF-8"?>
<svg width="100%" height="100%" viewBox="0 0 800 800" version="1.1" xmlns="http://www.w3.org/2000/svg" xmlns:xlink="http://www.w3.org/1999/xlink">
    <g stroke="none" stroke-width="1" fill="none" fill-rule="evenodd">
        <g fill="#FFFFFF">
            <circle cx="400" cy="400" r="4"></circle>
            <circle cx="440" cy="400" r="4"></circle>
            <circle cx="480" cy="400" r="4"></circle>
            <circle cx="520" cy="400" r="4"></circle>
            <circle cx="560" cy="400" r="4"></circle>
            <circle cx="600" cy="400" r="4"></circle>
            <circle cx="640" cy="400" r="4"></circle>
            <circle cx="680" cy="400" r="4"></circle>
            <circle cx="720" cy="400" r="4"></circle>
            <circle cx="760" cy="400" r="4"></circle>
            <circle cx="800" cy="400" r="4"></circle>
            <circle cx="400" cy="440" r="4"></circle>
            <circle cx="400" cy="480" r="4"></circle>
            <circle cx="400" cy="520" r="4"></circle>
            <circle cx="400" cy="560" r="4"></circle>
            <circle cx="400" cy="600" r="4"></circle>
            <circle cx="400" cy="640" r="4"></circle>
            <circle cx="400" cy="680" r="4"></circle>
            <circle cx="400" cy="720" r="4"></circle>
            <circle cx="400" cy="760" r="4"></circle>
            <circle cx="400" cy="800" r="4"></circle>
            <circle cx="400" cy="360" r="4"></circle>
            <circle cx="400" cy="320" r="4"></circle>
            <circle cx="400" cy="280" r="4"></circle>
            <circle cx="400" cy="240" r="4"></circle>
            <circle cx="400" cy="200" r="4"></circle>
            <circle cx="400" cy="160" r="4"></circle>
            <circle cx="400" cy="120" r="4"></circle>
            <circle cx="400" cy="80" r="4"></circle>
            <circle cx="400" cy="40" r="4"></circle>
            <circle cx="400" cy="0" r="4"></circle>
            <circle cx="360" cy="400" r="4"></circle>
            <circle cx="320" cy="400" r="4"></circle>
            <circle cx="280" cy="400" r="4"></circle>
            <circle cx="240" cy="400" r="4"></circle>
            <circle cx="200" cy="400" r="4"></circle>
            <circle cx="160" cy="400" r="4"></circle>
            <circle cx="120" cy="400" r="4"></circle>
            <circle cx="80" cy="400" r="4"></circle>
            <circle cx="40" cy="400" r="4"></circle>
            <circle cx="0" cy="400" r="4"></circle>
            <circle cx="440" cy="440" r="2"></circle>
            <circle cx="480" cy="480" r="2"></circle>
            <circle cx="520" cy="520" r="2"></circle>
            <circle cx="560" cy="560" r="2"></circle>
            <circle cx="600" cy="600" r="2"></circle>
            <circle cx="640" cy="640" r="2"></circle>
            <circle cx="680" cy="680" r="2"></circle>
            <circle cx="720" cy="720" r="2"></circle>
            <circle cx="760" cy="760" r="2"></circle>
            <circle cx="800" cy="800" r="2"></circle>
            <circle cx="360" cy="440" r="2"></circle>
            <circle cx="320" cy="480" r="2"></circle>
            <circle cx="280" cy="520" r="2"></circle>
            <circle cx="240" cy="560" r="2"></circle>
            <circle cx="200" cy="600" r="2"></circle>
            <circle cx="160" cy="640" r="2"></circle>
            <circle cx="120" cy="680" r="2"></circle>
            <circle cx="80" cy="720" r="2"></circle>
            <circle cx="40" cy="760" r="2"></circle>
            <circle cx="0" cy="800" r="2"></circle>
            <circle cx="440" cy="360" r="2"></circle>
            <circle cx="480" cy="320" r="2"></circle>
            <circle cx="520" cy="280" r="2"></circle>
            <circle cx="560" cy="240" r="2"></circle>
            <circle cx="600" cy="200" r="2"></circle>
            <circle cx="640" cy="160" r="2"></circle>
            <circle cx="680" cy="120" r="2"></circle>
            <circle cx="720" cy="80" r="2"></circle>
            <circle cx="760" cy="40" r="2"></circle>
            <circle cx="800" cy="0" r="2"></circle>
            <circle cx="360" cy="360" r="2"></circle>
            <circle cx="320" cy="320" r="2"></circle>
            <circle cx="280" cy="280" r="2"></circle>
            <circle cx="240" cy="240" r="2"></circle>
            <circle cx="200" cy="200" r="2"></circle>
            <circle cx="160" cy="160" r="2"></circle>
            <circle cx="120" cy="120" r="2"></circle>
            <circle cx="80" cy="80" r="2"></circle>
            <circle cx="40" cy="40" r="2"></circle>
            <circle cx="0" cy="0" r="2"></circle>
        </g>
    </g>
</svg>
